<svg xmlns="http://www.w3.org/2000/svg" viewBox="0 0 512 512">
  <defs>
    <linearGradient id="background" x1="96" y1="48" x2="416" y2="464" gradientUnits="userSpaceOnUse">
      <stop stop-color="#2563eb" />
      <stop offset="0.55" stop-color="#0ea5e9" />
      <stop offset="1" stop-color="#10b981" />
    </linearGradient>
    <filter id="soft-shadow" x="-20%" y="-20%" width="140%" height="140%">
      <feDropShadow dx="0" dy="18" stdDeviation="18" flood-color="#0f172a" flood-opacity="0.22" />
    </filter>
  </defs>

  <rect width="512" height="512" rx="116" fill="url(#background)" />
  <circle cx="256" cy="270" r="152" fill="#ffffff" opacity="0.16" />

  <g filter="url(#soft-shadow)">
    <path
      d="M152 330c26 42 65 66 104 66s78-24 104-66"
      fill="none"
      stroke="#ffffff"
      stroke-linecap="round"
      stroke-width="30"
    />
    <path
      d="M256 368V225"
      fill="none"
      stroke="#ffffff"
      stroke-linecap="round"
      stroke-width="30"
    />
    <path
      d="M246 228c-51-2-88-31-98-82 48-7 91 14 113 56 5 10-3 26-15 26Z"
      fill="#ffffff"
    />
    <path
      d="M272 218c9-47 43-77 94-78 6 46-17 86-59 105-16 7-39-10-35-27Z"
      fill="#ffffff"
    />
    <circle cx="256" cy="196" r="20" fill="#ffffff" />
  </g>

  <path
    d="M178 116c-34 33-55 80-55 132"
    fill="none"
    stroke="#ffffff"
    stroke-linecap="round"
    stroke-width="18"
    opacity="0.42"
  />
</svg>
